# xmcd CD database file
#
# Track frame offsets:
#	182
#	14497
#	28807
#	44020
#	58107
#	73882
#	88685
#	102037
#	120007
#	135467
#	151037
#	167190
#	181392
#	195742
#	213400
#
# Disc length: 3027 seconds
#
# Revision: 1
# Processed by: cddbd v1.5.1PL0 Copyright (c) Steve Scherf et al.
# Submitted via: CDex 1.50Beta7
#
DISCID=cd0bd10f
DTITLE=Truck Stop - Nur das Beste
DYEAR=2002
DGENRE=Country
TTITLE0=Big White Diesel
TTITLE1=Tanz mit mir
TTITLE2=Es tut so gut
TTITLE3=Cowboys und Texasboots
TTITLE4=Cowboys
TTITLE5=Lass Dir nie den Tag verderben
TTITLE6=Arizona - Arizona
TTITLE7=Kleine Cowboys werden gross
TTITLE8=Square Dance - Darling
TTITLE9=Alles Bingo
TTITLE10=Wenn Du nur willst
TTITLE11=Charlys Boss
TTITLE12=Du bist immer auf Achse
TTITLE13=Wenn es Nacht wird in Old Tucson
TTITLE14=Mitten aus dem Leben
EXTD=YEAR: 2002
EXTT0=
EXTT1=
EXTT2=
EXTT3=
EXTT4=
EXTT5=
EXTT6=
EXTT7=
EXTT8=
EXTT9=
EXTT10=
EXTT11=
EXTT12=
EXTT13=
EXTT14=
PLAYORDER=
